# xmcd
#
# Track frame offsets:
#  150
#  13285
#  21820
#  34917
#  46090
#  55855
#  66205
#  77687
#  86585
#  98837
#  107742
#  121470
#  130710
#  141325
#  154075
#  165120
#  176840
#  186637
#  195330
#  204240
#  215627
#  227582
#  240007
#  253287
#  263952
#  274750
#  288377
#  299400
#  312292
#  324177
#
# Disc length: 4487 seconds
#
# Revision: 0
# Processed by: cddbd v1.5.1PL2 Copyright (c) Steve Scherf et al.
# Submitted via: Collectorz.com_Music_Collector 6.11
#
DISCID=ac11851e
DTITLE=Various Artist - Hillbilly Fillies and Rockin' Chicks
DYEAR=1996
DGENRE=Rockabilly
TTITLE0=Miller Sisters - Ten Cats Down (Alt)
TTITLE1=Jean Chapel - Welcome To The Club
TTITLE2=Barbara Pittman - I Need A Man
TTITLE3=Patsy Holcomb - I Wanna Rock
TTITLE4=Jean Chapel - I Won't Be Rockin' Tonight
TTITLE5=Miller Sisters - You Can't Break The Chains Of Love
TTITLE6=Barbara Pittman - Sentimental Fool
TTITLE7=Wanda Ballman - Ain't Got A Worry
TTITLE8=Wanda Ballman - Heartbreak Girl
TTITLE9=Patsy Holcomb - Ooh That's Good
TTITLE10=Anita Wood - I'll Wait Forever
TTITLE11=Anita Wood - I Can't Show The Way I Feel
TTITLE12=Kirby Sisters - Red Velvet
TTITLE13=Kirby Sisters - (I Get The) Craziest Feeling
TTITLE14=Barbara Pittman - Two Young Fools In Love
TTITLE15=Magel Priesman - Memories Of You
TTITLE16=Maggie Sue Wimberly - Rock'N'Roll Cinnamon Tree
TTITLE17=Cliff and Barbara Thomas - Jumpin' Jack
TTITLE18=Barbara Pittman - Everlasting Love
TTITLE19=Barbara Pittman - Voice Of A Fool
TTITLE20=Barbara Pittman - Just One Day
TTITLE21=Barbara Pittman - No Matter Who's To Blame
TTITLE22=Maggie Sue Wimberly - Call Me Anything But Call Me
TTITLE23=Miller Sisters - Someday You Will Pay
TTITLE24=Miller Sisters - There's No Right Way To Do Me Wrong
TTITLE25=Sunrays - Love Is A Stranger
TTITLE26=Miller Sisters - Got You On My Mind
TTITLE27=Miller Sisters - I Know I Can't Forget You But I'll Try
TTITLE28=Miller Sisters - You Can Tell Me 
TTITLE29=Maggie Sue Wimberly - How Long Can It Be
EXTD=
EXTT0=
EXTT1=
EXTT2=
EXTT3=
EXTT4=
EXTT5=
EXTT6=
EXTT7=
EXTT8=
EXTT9=
EXTT10=
EXTT11=
EXTT12=
EXTT13=
EXTT14=
EXTT15=
EXTT16=
EXTT17=
EXTT18=
EXTT19=
EXTT20=
EXTT21=
EXTT22=
EXTT23=
EXTT24=
EXTT25=
EXTT26=
EXTT27=
EXTT28=
EXTT29=
PLAYORDER=
